<?xml version="1.0" standalone="no"?><!DOCTYPE svg PUBLIC "-//W3C//DTD SVG 1.1//EN" "http://www.w3.org/Graphics/SVG/1.1/DTD/svg11.dtd"><svg class="icon" width="200px" height="200.00px" viewBox="0 0 1024 1024" version="1.1" xmlns="http://www.w3.org/2000/svg"><path d="M511.706311 991.449653c-9.705036 0-18.885116-4.40738-24.954345-11.979846-0.809435-1.00898-81.823564-102.349039-161.684426-224.043682-47.188742-71.90875-84.873016-136.932696-112.007003-193.266725-35.756365-74.234725-53.137221-132.568295-53.137221-178.334641 0-47.476291 9.304923-93.549629 27.65792-136.939859 17.71957-41.894156 43.080168-79.511915 75.377758-111.808482 32.296567-32.29759 69.914326-57.657164 111.808482-75.377758 43.390229-18.352997 89.463568-27.65792 136.939859-27.65792 47.477314 0 93.549629 9.304923 136.939859 27.65792 41.893132 17.71957 79.510892 43.080168 111.808482 75.377758 32.29759 32.296567 57.658188 69.914326 75.376735 111.808482 18.352997 43.390229 27.65792 89.463568 27.65792 136.939859 0 45.766346-17.380856 104.099916-53.137221 178.334641-27.13501 56.33403-64.819285 121.357975-112.008027 193.266725-79.859839 121.695666-160.874991 223.034702-161.684426 224.043682C530.591427 987.043297 521.411347 991.449653 511.706311 991.449653zM511.706311 96.001471c-158.705582 0-287.823288 129.116683-287.823288 287.823288 0 24.340361 8.102538 70.186526 46.702672 150.374846 25.873274 53.748135 62.104453 116.236328 107.688651 185.728028 51.603285 78.668711 103.7172 148.671041 133.431965 187.479929 29.713742-38.808888 81.82868-108.811218 133.431965-187.479929 45.584198-69.491701 81.815377-131.979894 107.687628-185.728028 38.601156-80.18832 46.703695-126.034485 46.703695-150.374846C799.528576 225.118154 670.411893 96.001471 511.706311 96.001471z" fill="#707070" /><path d="M511.706311 543.725562c-88.170109 0-159.901827-71.731718-159.901827-159.901827s71.731718-159.901827 159.901827-159.901827 159.901827 71.731718 159.901827 159.901827S599.87642 543.725562 511.706311 543.725562zM511.706311 287.88264c-52.901861 0-95.941096 43.039235-95.941096 95.941096s43.039235 95.941096 95.941096 95.941096 95.941096-43.039235 95.941096-95.941096S564.608172 287.88264 511.706311 287.88264z" fill="#707070" /></svg>