<?xml version="1.0" standalone="no"?><!DOCTYPE svg PUBLIC "-//W3C//DTD SVG 1.1//EN" "http://www.w3.org/Graphics/SVG/1.1/DTD/svg11.dtd"><svg class="icon" width="200px" height="200.00px" viewBox="0 0 1024 1024" version="1.1" xmlns="http://www.w3.org/2000/svg"><path d="M572.024 504.023l315.608-315.608c15.953-15.954 15.953-42.143 0-58.097l-1.728-1.728c-15.953-15.953-42.143-15.953-58.096 0L512.199 444.598l-315.608-316.14c-15.953-15.954-42.143-15.954-58.096 0l-1.73 1.727c-16.351 15.953-16.351 42.143 0 58.096l315.61 315.742-315.61 315.608c-15.952 15.953-15.952 42.143 0 58.096l1.73 1.73c15.953 15.952 42.143 15.952 58.096 0l315.608-315.61 315.61 315.61c15.953 15.952 42.143 15.952 58.096 0l1.728-1.73c15.953-15.953 15.953-42.143 0-58.096L572.024 504.023z" fill="#333333" /></svg>