<?xml version="1.0" standalone="no"?><!DOCTYPE svg PUBLIC "-//W3C//DTD SVG 1.1//EN" "http://www.w3.org/Graphics/SVG/1.1/DTD/svg11.dtd"><svg class="icon" width="200px" height="200.00px" viewBox="0 0 1024 1024" version="1.1" xmlns="http://www.w3.org/2000/svg"><path d="M977.75104 420.11136c-0.03584 0-0.03584-0.03584 0 0a851.69152 851.69152 0 0 0-36.4288-48.44032c-0.52736-0.63488-1.01888-1.26976-1.54624-1.90464h0.2816l-12.15488-14.30528-0.17408-0.20992c-16.16896-19.02592-32.02048-35.968-45.87008-49.03936-32.06144-30.26432-47.70304-34.35008-58.76224-34.35008h-170.58304c-4.72064 0-9.3696 0.49664-13.91616 1.47968V197.74464c0-36.60288-29.76256-66.37056-66.37056-66.37056H70.49216C33.88928 131.37408 4.1216 161.14176 4.1216 197.74464v521.74848c0 36.60288 29.76768 66.37056 66.37056 66.37056h76.83072c12.2624 57.70752 64.18944 100.33152 123.83232 100.33152 59.67872 0 111.60576-42.624 123.86816-100.33152h177.16736c14.65344 0 28.64128-4.75648 40.16128-13.53216a65.85856 65.85856 0 0 0 40.12544 13.53216h16.62976c12.25728 57.70752 64.18432 100.33152 123.83232 100.33152 59.64288 0 111.60064-42.624 123.86304-100.33152h36.7104c36.60288 0 66.37056-29.76768 66.37056-66.37056V508.78464c0-9.33888-2.39616-24.09984-20.99712-55.84384-5.84704-9.99936-12.96384-21.06368-21.13536-32.82944z m-706.56 413.62944c-40.86272 0-74.0864-33.2544-74.0864-74.12224 0-40.86272 33.22368-74.11712 74.0864-74.11712 40.86784 0 74.12736 33.2544 74.12736 74.11712-0.00512 40.86784-33.26464 74.12224-74.12736 74.12224z m314.91072-495.50336v381.25056a13.92128 13.92128 0 0 1-13.91104 13.91104H395.02336c-11.94496-56.82176-61.19424-98.46784-119.92576-100.3008h-0.38912v0.03584H273.90976c-0.1024 0-0.20992-0.03584-0.24064 0h-6.21056a126.28992 126.28992 0 0 0-120.064 100.3008h-76.9024a13.9264 13.9264 0 0 1-13.91616-13.91616V197.74464a13.9264 13.9264 0 0 1 13.91616-13.91616h501.70368a13.9264 13.9264 0 0 1 13.91104 13.91616v140.4928h-0.00512z m206.86848 495.50336c-40.86272 0-74.12224-33.2544-74.12224-74.12224 0-40.86272 33.25952-74.11712 74.12224-74.11712 40.86784 0 74.12736 33.2544 74.12736 74.11712 0 40.86784-33.29536 74.12224-74.12736 74.12224z m174.56128-114.2528h-0.13824a13.9264 13.9264 0 0 1-13.91616 13.91104h-36.67456c-11.55072-54.25152-58.4448-95.79008-114.28352-99.97824v0.24576c-0.07168 0-0.1024-0.03072-0.1792-0.03072-0.07168 0-0.1024-0.03584-0.17408-0.03584s-0.10752-0.03072-0.1792-0.03072-0.10752-0.03584-0.1792-0.03584c-0.03072 0-0.1024 0-0.1792-0.04096-0.2816-0.06656-0.59392-0.1024-0.87552-0.13824H799.63136c-0.24576 0-0.52736 0-0.7424-0.03072H797.23008c-0.03072 0-0.07168 0-0.1024-0.03584h-0.04096v-0.13824 0.13824c-0.03584 0-0.06656 0-0.10752-0.03072h-0.34816v-0.0768 0.0768H795.71456c-0.06656 0-0.17408-0.04096-0.2816 0H790.3488v0.03072l-0.1792-0.07168v0.07168h-0.03072v-0.07168l-0.13824 0.10752h-0.03584v-0.14336l-0.13824 0.14336-0.1792-0.14336v0.14336-0.14336l-0.13824 0.10752h-0.04096v-0.10752l-0.13824 0.0768v-0.0768l-0.1792 0.03584h-3.9424l-0.87552 0.13824v-0.07168h-0.14848v0.10752h-0.03072l-0.1792-0.10752v0.13824h-0.03584v-0.13824l-0.13824 0.1792v-0.1792h-0.13824v0.20992h-0.03584v-0.20992h-0.14336c-0.38912 0.03584-0.77312 0.03584-1.19808 0.07168-55.31136 4.68992-101.63712 46.00832-113.08544 99.88096h-16.62464a13.9264 13.9264 0 0 1-13.91616-13.91616v-381.0816a13.9264 13.9264 0 0 1 13.91616-13.91616h168.1152c2.7136 1.33632 11.3408 6.44608 29.20448 23.84896 1.33632 1.30048 2.6368 2.60608 4.01408 3.94752h-80.88576c-36.60288 0-66.37056 29.76768-66.37056 66.37056v80.28672c0 36.608 29.76768 66.37056 66.37056 66.37056h194.49856v154.3424h0.01024z m-0.1024-206.82752h-194.5344a13.9264 13.9264 0 0 1-13.92128-13.91616V418.4576a13.9264 13.9264 0 0 1 13.92128-13.91104h127.52896a787.1232 787.1232 0 0 1 18.46272 23.67488c10.35776 13.84448 19.90656 27.51488 27.58144 39.59808l3.5584-1.90464-3.31264 2.22208 7.3984-4.36736-7.25504 4.61824 3.52768 5.67296c15.0784 24.69376 16.87552 33.85856 17.05472 35.05664v3.54304h-0.01024z" fill="#707070" /></svg>